# xmcd CD database file
#
# Track frame offsets:
#	150
#	14007
#	27141
#	41553
#	53913
#	67979
#	82589
#	96568
#	116850
#	127920
#	154570
#	168646
#	210370
#	225342
#	251348
#	271809
#
# Disc length: 3916 seconds
#
# Revision: 0
# Processed by: cddbd v1.5.2PL0 Copyright (c) Steve Scherf et al.
# Submitted via: CDex 1.51
#
DISCID=c50f4a10
DTITLE=Buck Clayton - 1937-1960
DYEAR=2011
DGENRE=Jazz
TTITLE0=Count Basie Orchestra - One O' Clock Jump
TTITLE1=Kansas City Six - Pagin' the Devil
TTITLE2=Count Basie Orchestra - Love Jumped Out
TTITLE3=Teddy Wilson Orchestra - I Can't Believe
TTITLE4=Count Basie Orchestra - Fiesta in Blue
TTITLE5=Count Basie Orchestra - Going to Chicago
TTITLE6=Count Basie Sextet - Royal Garden Blues
TTITLE7=Buck Clayton Quintet - B.C. Blues
TTITLE8=Sir Charles Thompson and His All Stars - The Street Beat
TTITLE9=Jazz at the Philharmonic - Carnegie Blues
TTITLE10=Buck Clayton Quartet - Blues in First
TTITLE11=Buck Clayton Jam Session - The Huckle-Buck
TTITLE12=Buck Clayton Orchestra - 'T Ain't Nobody Business If I Do
TTITLE13=Buck Clayton-Buddy Tate Quintet - Blue Ebony
TTITLE14=Kansas City Nine - Midnight Mama
TTITLE15=Pee Wee Russell Quintet - What Can I Say Dear
EXTD=YEAR: 2011
EXTT0=
EXTT1=
EXTT2=
EXTT3=
EXTT4=
EXTT5=
EXTT6=
EXTT7=
EXTT8=
EXTT9=
EXTT10=
EXTT11=
EXTT12=
EXTT13=
EXTT14=
EXTT15=
PLAYORDER=
